<?xml version="1.0" encoding="us-ascii" standalone="no"?><svg xmlns="http://www.w3.org/2000/svg" xmlns:xlink="http://www.w3.org/1999/xlink" contentStyleType="text/css" height="275px" preserveAspectRatio="none" style="width:972px;height:275px;background:#FFFFFF;" version="1.1" viewBox="0 0 972 275" width="972px" zoomAndPan="magnify"><defs/><g><!--class document--><g id="elem_document"><rect codeLine="4" fill="#F1F1F1" height="32" id="document" rx="2.5" ry="2.5" style="stroke:#181818;stroke-width:0.5;" width="196" x="410" y="7"/><ellipse cx="425" cy="23" fill="#ADD1B2" rx="11" ry="11" style="stroke:#181818;stroke-width:1.0;"/><path d="M427.7656,18.875 Q427.9219,18.6563 428.1094,18.5469 Q428.2969,18.4375 428.5156,18.4375 Q428.8906,18.4375 429.125,18.7031 Q429.3594,18.9531 429.3594,19.5625 L429.3594,21.0156 Q429.3594,21.625 429.125,21.8906 Q428.8906,22.1563 428.5156,22.1563 Q428.1719,22.1563 427.9688,21.9531 Q427.7656,21.7656 427.6563,21.25 Q427.6094,20.8906 427.4219,20.7031 Q427.0938,20.3281 426.4844,20.1094 Q425.875,19.8906 425.25,19.8906 Q424.4844,19.8906 423.8438,20.2188 Q423.2188,20.5469 422.7188,21.2969 Q422.2344,22.0469 422.2344,23.0781 L422.2344,24.1719 Q422.2344,25.4063 423.125,26.2344 Q424.0156,27.0469 425.6094,27.0469 Q426.5469,27.0469 427.2031,26.7969 Q427.5938,26.6406 428.0156,26.2031 Q428.2813,25.9375 428.4219,25.8594 Q428.5781,25.7813 428.7813,25.7813 Q429.1094,25.7813 429.3594,26.0469 Q429.625,26.2969 429.625,26.6406 Q429.625,26.9844 429.2813,27.3906 Q428.7813,27.9688 427.9844,28.2969 Q426.9063,28.75 425.6094,28.75 Q424.0938,28.75 422.8906,28.125 Q421.9063,27.625 421.2188,26.5625 Q420.5313,25.4844 420.5313,24.2031 L420.5313,23.0469 Q420.5313,21.7188 421.1406,20.5781 Q421.7656,19.4219 422.8594,18.8125 Q423.9531,18.1875 425.1875,18.1875 Q425.9219,18.1875 426.5625,18.3594 Q427.2188,18.5156 427.7656,18.875 Z " fill="#000000"/><text fill="#000000" font-family="sans-serif" font-size="14" lengthAdjust="spacing" textLength="164" x="439" y="28.7285">MedComDocumentBundle</text></g><!--class composition--><g id="elem_composition"><rect codeLine="5" fill="#F1F1F1" height="32" id="composition" rx="2.5" ry="2.5" style="stroke:#181818;stroke-width:0.5;" width="230" x="393" y="117"/><ellipse cx="408" cy="133" fill="#ADD1B2" rx="11" ry="11" style="stroke:#181818;stroke-width:1.0;"/><path d="M410.7656,128.875 Q410.9219,128.6563 411.1094,128.5469 Q411.2969,128.4375 411.5156,128.4375 Q411.8906,128.4375 412.125,128.7031 Q412.3594,128.9531 412.3594,129.5625 L412.3594,131.0156 Q412.3594,131.625 412.125,131.8906 Q411.8906,132.1563 411.5156,132.1563 Q411.1719,132.1563 410.9688,131.9531 Q410.7656,131.7656 410.6563,131.25 Q410.6094,130.8906 410.4219,130.7031 Q410.0938,130.3281 409.4844,130.1094 Q408.875,129.8906 408.25,129.8906 Q407.4844,129.8906 406.8438,130.2188 Q406.2188,130.5469 405.7188,131.2969 Q405.2344,132.0469 405.2344,133.0781 L405.2344,134.1719 Q405.2344,135.4063 406.125,136.2344 Q407.0156,137.0469 408.6094,137.0469 Q409.5469,137.0469 410.2031,136.7969 Q410.5938,136.6406 411.0156,136.2031 Q411.2813,135.9375 411.4219,135.8594 Q411.5781,135.7813 411.7813,135.7813 Q412.1094,135.7813 412.3594,136.0469 Q412.625,136.2969 412.625,136.6406 Q412.625,136.9844 412.2813,137.3906 Q411.7813,137.9688 410.9844,138.2969 Q409.9063,138.75 408.6094,138.75 Q407.0938,138.75 405.8906,138.125 Q404.9063,137.625 404.2188,136.5625 Q403.5313,135.4844 403.5313,134.2031 L403.5313,133.0469 Q403.5313,131.7188 404.1406,130.5781 Q404.7656,129.4219 405.8594,128.8125 Q406.9531,128.1875 408.1875,128.1875 Q408.9219,128.1875 409.5625,128.3594 Q410.2188,128.5156 410.7656,128.875 Z " fill="#000000"/><text fill="#000000" font-family="sans-serif" font-size="14" lengthAdjust="spacing" textLength="198" x="422" y="138.7285">MedComDocumentComposition</text></g><!--class organization--><g id="elem_organization"><rect codeLine="6" fill="#F1F1F1" height="42.7031" id="organization" rx="2.5" ry="2.5" style="stroke:#181818;stroke-width:0.5;" width="232" x="7" y="227"/><ellipse cx="22" cy="248.3516" fill="#ADD1B2" rx="11" ry="11" style="stroke:#181818;stroke-width:1.0;"/><path d="M24.7656,244.2266 Q24.9219,244.0078 25.1094,243.8984 Q25.2969,243.7891 25.5156,243.7891 Q25.8906,243.7891 26.125,244.0547 Q26.3594,244.3047 26.3594,244.9141 L26.3594,246.3672 Q26.3594,246.9766 26.125,247.2422 Q25.8906,247.5078 25.5156,247.5078 Q25.1719,247.5078 24.9688,247.3047 Q24.7656,247.1172 24.6563,246.6016 Q24.6094,246.2422 24.4219,246.0547 Q24.0938,245.6797 23.4844,245.4609 Q22.875,245.2422 22.25,245.2422 Q21.4844,245.2422 20.8438,245.5703 Q20.2188,245.8984 19.7188,246.6484 Q19.2344,247.3984 19.2344,248.4297 L19.2344,249.5234 Q19.2344,250.7578 20.125,251.5859 Q21.0156,252.3984 22.6094,252.3984 Q23.5469,252.3984 24.2031,252.1484 Q24.5938,251.9922 25.0156,251.5547 Q25.2813,251.2891 25.4219,251.2109 Q25.5781,251.1328 25.7813,251.1328 Q26.1094,251.1328 26.3594,251.3984 Q26.625,251.6484 26.625,251.9922 Q26.625,252.3359 26.2813,252.7422 Q25.7813,253.3203 24.9844,253.6484 Q23.9063,254.1016 22.6094,254.1016 Q21.0938,254.1016 19.8906,253.4766 Q18.9063,252.9766 18.2188,251.9141 Q17.5313,250.8359 17.5313,249.5547 L17.5313,248.3984 Q17.5313,247.0703 18.1406,245.9297 Q18.7656,244.7734 19.8594,244.1641 Q20.9531,243.5391 22.1875,243.5391 Q22.9219,243.5391 23.5625,243.7109 Q24.2188,243.8672 24.7656,244.2266 Z " fill="#000000"/><text fill="#000000" font-family="sans-serif" font-size="12" font-style="italic" lengthAdjust="spacing" textLength="162" x="55" y="244.457">&#171;MedComCoreOrganization&#187;</text><text fill="#000000" font-family="sans-serif" font-size="14" lengthAdjust="spacing" textLength="200" x="36" y="261.627">MedComDocumentOrganization</text></g><!--class practitioner--><g id="elem_practitioner"><rect codeLine="7" fill="#F1F1F1" height="42.7031" id="practitioner" rx="2.5" ry="2.5" style="stroke:#181818;stroke-width:0.5;" width="224" x="274" y="227"/><ellipse cx="289" cy="248.3516" fill="#ADD1B2" rx="11" ry="11" style="stroke:#181818;stroke-width:1.0;"/><path d="M291.7656,244.2266 Q291.9219,244.0078 292.1094,243.8984 Q292.2969,243.7891 292.5156,243.7891 Q292.8906,243.7891 293.125,244.0547 Q293.3594,244.3047 293.3594,244.9141 L293.3594,246.3672 Q293.3594,246.9766 293.125,247.2422 Q292.8906,247.5078 292.5156,247.5078 Q292.1719,247.5078 291.9688,247.3047 Q291.7656,247.1172 291.6563,246.6016 Q291.6094,246.2422 291.4219,246.0547 Q291.0938,245.6797 290.4844,245.4609 Q289.875,245.2422 289.25,245.2422 Q288.4844,245.2422 287.8438,245.5703 Q287.2188,245.8984 286.7188,246.6484 Q286.2344,247.3984 286.2344,248.4297 L286.2344,249.5234 Q286.2344,250.7578 287.125,251.5859 Q288.0156,252.3984 289.6094,252.3984 Q290.5469,252.3984 291.2031,252.1484 Q291.5938,251.9922 292.0156,251.5547 Q292.2813,251.2891 292.4219,251.2109 Q292.5781,251.1328 292.7813,251.1328 Q293.1094,251.1328 293.3594,251.3984 Q293.625,251.6484 293.625,251.9922 Q293.625,252.3359 293.2813,252.7422 Q292.7813,253.3203 291.9844,253.6484 Q290.9063,254.1016 289.6094,254.1016 Q288.0938,254.1016 286.8906,253.4766 Q285.9063,252.9766 285.2188,251.9141 Q284.5313,250.8359 284.5313,249.5547 L284.5313,248.3984 Q284.5313,247.0703 285.1406,245.9297 Q285.7656,244.7734 286.8594,244.1641 Q287.9531,243.5391 289.1875,243.5391 Q289.9219,243.5391 290.5625,243.7109 Q291.2188,243.8672 291.7656,244.2266 Z " fill="#000000"/><text fill="#000000" font-family="sans-serif" font-size="12" font-style="italic" lengthAdjust="spacing" textLength="153" x="322.5" y="244.457">&#171;MedComCorePractitioner&#187;</text><text fill="#000000" font-family="sans-serif" font-size="14" lengthAdjust="spacing" textLength="192" x="303" y="261.627">MedComDocumentPractitioner</text></g><!--class patient--><g id="elem_patient"><rect codeLine="8" fill="#F1F1F1" height="42.7031" id="patient" rx="2.5" ry="2.5" style="stroke:#181818;stroke-width:0.5;" width="196" x="533" y="227"/><ellipse cx="548" cy="248.3516" fill="#ADD1B2" rx="11" ry="11" style="stroke:#181818;stroke-width:1.0;"/><path d="M550.7656,244.2266 Q550.9219,244.0078 551.1094,243.8984 Q551.2969,243.7891 551.5156,243.7891 Q551.8906,243.7891 552.125,244.0547 Q552.3594,244.3047 552.3594,244.9141 L552.3594,246.3672 Q552.3594,246.9766 552.125,247.2422 Q551.8906,247.5078 551.5156,247.5078 Q551.1719,247.5078 550.9688,247.3047 Q550.7656,247.1172 550.6563,246.6016 Q550.6094,246.2422 550.4219,246.0547 Q550.0938,245.6797 549.4844,245.4609 Q548.875,245.2422 548.25,245.2422 Q547.4844,245.2422 546.8438,245.5703 Q546.2188,245.8984 545.7188,246.6484 Q545.2344,247.3984 545.2344,248.4297 L545.2344,249.5234 Q545.2344,250.7578 546.125,251.5859 Q547.0156,252.3984 548.6094,252.3984 Q549.5469,252.3984 550.2031,252.1484 Q550.5938,251.9922 551.0156,251.5547 Q551.2813,251.2891 551.4219,251.2109 Q551.5781,251.1328 551.7813,251.1328 Q552.1094,251.1328 552.3594,251.3984 Q552.625,251.6484 552.625,251.9922 Q552.625,252.3359 552.2813,252.7422 Q551.7813,253.3203 550.9844,253.6484 Q549.9063,254.1016 548.6094,254.1016 Q547.0938,254.1016 545.8906,253.4766 Q544.9063,252.9766 544.2188,251.9141 Q543.5313,250.8359 543.5313,249.5547 L543.5313,248.3984 Q543.5313,247.0703 544.1406,245.9297 Q544.7656,244.7734 545.8594,244.1641 Q546.9531,243.5391 548.1875,243.5391 Q548.9219,243.5391 549.5625,243.7109 Q550.2188,243.8672 550.7656,244.2266 Z " fill="#000000"/><text fill="#000000" font-family="sans-serif" font-size="12" font-style="italic" lengthAdjust="spacing" textLength="95" x="596.5" y="244.457">&#171;DkCorePatient&#187;</text><text fill="#000000" font-family="sans-serif" font-size="14" lengthAdjust="spacing" textLength="164" x="562" y="261.627">MedComDocumentPatient</text></g><!--class clinical--><g id="elem_clinical"><rect codeLine="9" fill="#F1F1F1" height="32" id="clinical" rx="2.5" ry="2.5" style="stroke:#181818;stroke-width:0.5;" width="201" x="764.5" y="232.5"/><ellipse cx="779.5" cy="248.5" fill="#ADD1B2" rx="11" ry="11" style="stroke:#181818;stroke-width:1.0;"/><path d="M782.2656,244.375 Q782.4219,244.1563 782.6094,244.0469 Q782.7969,243.9375 783.0156,243.9375 Q783.3906,243.9375 783.625,244.2031 Q783.8594,244.4531 783.8594,245.0625 L783.8594,246.5156 Q783.8594,247.125 783.625,247.3906 Q783.3906,247.6563 783.0156,247.6563 Q782.6719,247.6563 782.4688,247.4531 Q782.2656,247.2656 782.1563,246.75 Q782.1094,246.3906 781.9219,246.2031 Q781.5938,245.8281 780.9844,245.6094 Q780.375,245.3906 779.75,245.3906 Q778.9844,245.3906 778.3438,245.7188 Q777.7188,246.0469 777.2188,246.7969 Q776.7344,247.5469 776.7344,248.5781 L776.7344,249.6719 Q776.7344,250.9063 777.625,251.7344 Q778.5156,252.5469 780.1094,252.5469 Q781.0469,252.5469 781.7031,252.2969 Q782.0938,252.1406 782.5156,251.7031 Q782.7813,251.4375 782.9219,251.3594 Q783.0781,251.2813 783.2813,251.2813 Q783.6094,251.2813 783.8594,251.5469 Q784.125,251.7969 784.125,252.1406 Q784.125,252.4844 783.7813,252.8906 Q783.2813,253.4688 782.4844,253.7969 Q781.4063,254.25 780.1094,254.25 Q778.5938,254.25 777.3906,253.625 Q776.4063,253.125 775.7188,252.0625 Q775.0313,250.9844 775.0313,249.7031 L775.0313,248.5469 Q775.0313,247.2188 775.6406,246.0781 Q776.2656,244.9219 777.3594,244.3125 Q778.4531,243.6875 779.6875,243.6875 Q780.4219,243.6875 781.0625,243.8594 Q781.7188,244.0156 782.2656,244.375 Z " fill="#000000"/><text fill="#000000" font-family="sans-serif" font-size="14" lengthAdjust="spacing" textLength="169" x="793.5" y="254.2285">*use case specific content*</text></g><!--link document to composition--><g id="link_document_composition"><path codeLine="11" d="M508,39.02 C508,59.53 508,96.13 508,116.76 " fill="none" id="document-composition" style="stroke:#181818;stroke-width:1.0;"/><text fill="#000000" font-family="sans-serif" font-size="13" lengthAdjust="spacing" textLength="29" x="509" y="83.4951">entry</text></g><!--link composition to organization--><g id="link_composition_organization"><path codeLine="12" d="M450.23,149.08 C418.25,157.57 377.83,168.54 342,179 C289.42,194.34 230.14,212.97 186.53,226.92 " fill="none" id="composition-organization" style="stroke:#181818;stroke-width:1.0;"/><text fill="#000000" font-family="sans-serif" font-size="13" lengthAdjust="spacing" textLength="92" x="343" y="193.4951">authorInstitution</text></g><!--link composition to practitioner--><g id="link_composition_practitioner"><path codeLine="13" d="M491.8,149.07 C470.28,169.09 432.18,204.53 408.06,226.98 " fill="none" id="composition-practitioner" style="stroke:#181818;stroke-width:1.0;"/><text fill="#000000" font-family="sans-serif" font-size="13" lengthAdjust="spacing" textLength="77" x="459" y="193.4951">authorPerson</text></g><!--link composition to patient--><g id="link_composition_patient"><path codeLine="14" d="M524.33,149.07 C546.03,169.09 584.44,204.53 608.76,226.98 " fill="none" id="composition-patient" style="stroke:#181818;stroke-width:1.0;"/><text fill="#000000" font-family="sans-serif" font-size="13" lengthAdjust="spacing" textLength="42" x="575" y="193.4951">subject</text></g><!--link composition to clinical--><g id="link_composition_clinical"><path codeLine="15" d="M555.41,149.07 C623.78,170.81 749.36,210.73 817.68,232.46 " fill="none" id="composition-clinical" style="stroke:#181818;stroke-width:1.0;"/><text fill="#000000" font-family="sans-serif" font-size="13" lengthAdjust="spacing" textLength="75" x="699" y="193.4951">section.entry</text></g><!--SRC=[TP71hi8W44NtVCMaInFV1nZZGjsynSlp5t0wAbgWOM2XN-y4gbAjcm8tvrwOsvDf2SZsyGgMx9u2AuMTPeRcZzgDjrkFoPABw-JQZXhG3EqWJOEoxJsRQBpBDBxEquR_SDJEtFJJuIi1bij2RtoWcbojfjDsGMFCjr78QNqbZD9gyckQt2LB2IfxoTXUih-SNzPPOWBKyk6Uq1mCol0k2ZChJNJ66TITKey6OJwl-u45DAA6QwDgLQ1H9KBf54y-_3gM0L8kxjqn6llfsCaFdeA7qOJZj3yJnW_ayVZC223op_1MTGS0]--></g></svg>